<svg width="150" height="34" viewBox="0 0 150 34" xmlns="http://www.w3.org/2000/svg">
  <path d="M42.4 16.236V8.33h-3.163V6.249h8.822v2.08h-3.162v7.907H42.4zm9.238-6.242c.416-.999 1.248-1.498 2.33-1.498 1.332 0 2.33.832 2.33 2.497v5.326h-2.496v-4.494c0-.749-.25-1.165-.999-1.165-.666 0-1.248.416-1.248 1.581v4.078h-2.497V5.5h2.497v4.494h.083zm10.903 3.579l1.997.666c-.5 1.498-1.831 2.08-3.33 2.08-2.246 0-3.744-1.414-3.744-3.911s1.415-4.078 3.828-4.078c2.247 0 3.33 1.498 3.33 3.412 0 .333-.084.749-.167.999h-4.578c0 1.082.583 1.747 1.415 1.747.583.084 1.082-.25 1.249-.915zm-.25-1.914v-.333c0-.583-.416-1.165-1.082-1.165-.75 0-1.248.582-1.332 1.498h2.414zm8.572-1.582c.333-1.082 1.249-1.664 2.414-1.664 1.331 0 2.33.832 2.33 2.497v5.326H73.11v-4.494c0-.75-.25-1.165-.998-1.165-.666 0-1.249.416-1.249 1.581v4.078h-2.497V8.663h2.081l.416 1.414zm10.986 3.496l1.997.666c-.499 1.498-1.83 2.08-3.329 2.08-2.247 0-3.745-1.414-3.745-3.911s1.415-4.078 3.829-4.078c2.247 0 3.329 1.498 3.329 3.412 0 .333-.084.749-.167.999h-4.577c0 1.082.582 1.747 1.415 1.747.582.084.998-.25 1.248-.915zm-.25-1.914v-.333c0-.583-.416-1.165-1.082-1.165-.749 0-1.248.582-1.331 1.498h2.413zm9.155-2.996l1.165 4.91 1.082-4.91h2.33l-2.08 7.573h-2.33l-1.082-4.66-1.082 4.66h-2.414l-2.08-7.573h2.496l1.082 4.91 1.082-4.91h1.831z" fill="#000586"/>
  <path d="M84.18 26.64c-.417.25-.75.416-1.166.416-.5 0-.832-.25-.832-.916v-3.08h1.997v-1.83h-1.997v-1.914l-2.497.332v1.582h-.999v1.83h1v3.413c0 1.748 1.081 2.58 2.746 2.58.832 0 1.498-.25 2.08-.666l-.333-1.748zm-10.987-8.656h-2.496v10.82h2.496v-4.079c0-1.165.583-1.581 1.249-1.581.749 0 .999.416.999 1.165v4.494h2.496v-5.326c0-1.581-.998-2.497-2.33-2.497-1.082 0-1.997.5-2.33 1.498v-4.494h-.084zm-9.487 11.652c0-.417.333-.666.832-.666h2.164c.582 0 .999.166.999.582 0 .583-.833.916-2.248.916-1.081 0-1.747-.25-1.747-.832zm6.075-.5c0-1.498-.999-2.247-3.08-2.247h-1.997c-.332 0-.499-.083-.499-.333s.167-.333.333-.5c.333.084.666.084 1.082.084 1.914 0 3.412-.832 3.412-2.497 0-.5-.166-.915-.416-1.248.666-.167 1.248-.666 1.415-1.415l-1.998-.666c-.083.5-.166.999-.416 1.249a5.14 5.14 0 0 0-2.08-.417c-2.081 0-3.413.916-3.413 2.58 0 1 .583 1.748 1.415 2.081-.749.167-1.415.75-1.415 1.498 0 .75.417 1.249 1.082 1.415-.998.167-1.664.666-1.664 1.415 0 1.415 1.914 1.914 3.662 1.914 2.33-.083 4.577-.832 4.577-2.913zm-5.16-5.576c0-.749.333-1.165.999-1.165.666 0 .999.416.999 1.165 0 .75-.333 1.082-1 1.082-.665.083-.998-.333-.998-1.082zm-6.159 5.243h2.497V21.23h-2.497v7.573zm2.664-9.737c0-.832-.666-1.332-1.415-1.332-.75 0-1.415.5-1.415 1.332 0 .832.666 1.331 1.415 1.331s1.415-.499 1.415-1.331zm-8.49 5.243c.084-.915.583-1.498 1.332-1.498.666 0 1.082.5 1.082 1.165v.333h-2.413zm1.415 2.83c-.832 0-1.414-.666-1.414-1.748h4.577c.083-.25.167-.666.167-.999 0-1.83-1.082-3.412-3.33-3.412-2.33 0-3.828 1.581-3.828 4.078 0 2.414 1.498 3.912 3.745 3.912 1.498 0 2.83-.666 3.33-2.08l-1.998-.667c-.25.666-.666.916-1.249.916zm-10.486-5.91l-1.082 4.911-1.082-4.91h-2.497l2.081 7.573h2.414l1.081-4.66 1.082 4.66h2.414l2.08-7.573h-2.413l-1.082 4.91-1.082-4.91h-1.914zm99.538 5.66c.333 1.415 1.665 2.08 3.33 2.08 1.997 0 3.412-.915 3.412-2.496 0-2.996-4.162-1.748-4.162-3.08 0-.416.333-.748.916-.748.666 0 .999.332 1.082.832l2.08-.25c-.25-1.415-1.331-2.164-3.162-2.164-1.748 0-3.246.916-3.246 2.58 0 2.913 4.078 1.748 4.078 3.08 0 .499-.416.749-.999.749-.665 0-1.165-.333-1.248-.916l-2.08.333zm-.333-5.826c-1.414-.25-2.496.583-2.746 1.831l-.25-1.748h-2.164v7.574h2.497v-3.495c0-1.249.75-1.831 1.665-1.831.333 0 .665.083.915.166l.083-2.497zm-11.069 3.246c.084-.915.583-1.498 1.332-1.498.666 0 1.082.5 1.082 1.165v.333H131.7zm1.415 2.83c-.832 0-1.415-.666-1.415-1.748h4.578c.083-.25.166-.666.166-.999 0-1.83-1.082-3.412-3.329-3.412-2.33 0-3.828 1.581-3.828 4.078 0 2.414 1.498 3.912 3.745 3.912 1.498 0 2.83-.666 3.329-2.08l-1.997-.667c-.167.666-.666.916-1.249.916zm-9.654-9.155h-2.497v10.82h2.497v-4.079c0-1.165.583-1.581 1.248-1.581.75 0 1 .416 1 1.165v4.494h2.496v-5.326c0-1.581-.999-2.497-2.33-2.497-1.082 0-1.998.5-2.33 1.498v-4.494h-.084zm-10.487 6.99c0 2.498 1.499 3.996 3.829 3.996 1.664 0 2.913-.916 3.246-2.414l-2.164-.666c-.083.75-.5 1.249-1.082 1.249-.916 0-1.332-.75-1.332-2.164 0-1.249.416-2.164 1.332-2.164.666 0 .999.5 1.082 1.248l2.164-.499c-.167-1.581-1.332-2.58-3.246-2.58-2.33.083-3.829 1.581-3.829 3.995zm-.749 1.665c-.416.25-.749.417-1.165.417-.5 0-.832-.25-.832-.916v-3.08h1.997v-1.83h-1.997v-1.914l-2.497.332v1.582h-.998v1.83h.998v3.413c0 1.748 1.082 2.58 2.747 2.58.832 0 1.498-.25 2.08-.666l-.333-1.748zm-8.905-.499c0 .916-.582 1.248-1.165 1.248-.582 0-.915-.332-.915-.832 0-.582.499-.915 1.498-.915h.5v.499h.082zm2.414-2.58c0-1.581-.999-2.58-3.163-2.58-1.914 0-3.162.916-3.246 2.497l2.248.333c0-.666.332-.999.915-.999s.832.333.832.915v.75c-.25 0-.666-.084-.915-.084-2.164 0-3.412.833-3.412 2.33 0 1.415.998 2.165 2.413 2.165.999 0 1.831-.417 2.164-1.166l.25.5c.333.416.832.666 1.58.666.5 0 1-.167 1.333-.333l-.084-1.582a.636.636 0 0 1-.416.167c-.25 0-.5-.167-.5-.5V23.56zm-13.4-2.33l-1.081 4.91-1.082-4.91h-2.497l2.08 7.573h2.414l1.082-4.66 1.082 4.66h2.413l2.081-7.573h-2.33l-1.082 4.91-1.082-4.91h-1.998z" fill="#0C6CCE"/>
  <path d="M33.078 16.81c0 9.132-7.37 16.58-16.5 16.5-9.131 0-16.5-7.368-16.5-16.5 0-9.13 7.369-16.5 16.5-16.5 9.13 0 16.5 7.37 16.5 16.5zm-11.534.642l3.284-10.974h-3.444l-1.602 7.129h-.08L18.1 6.478h-2.964l-1.602 7.129h-.08l-1.602-7.129H8.408l3.284 10.974H8.408l3.284 10.973h3.364l1.522-6.728h.08l1.522 6.728h3.364l3.284-10.973h-3.284zm-1.762 7.128L18.1 17.452h-2.964l-1.602 7.128h-.08l-1.602-7.128h3.204l1.522-6.729h.08l1.522 6.729h3.204l-1.602 7.128z" fill="#000586"/>
</svg>